<svg id="svg" xmlns="http://www.w3.org/2000/svg" xmlns:xlink="http://www.w3.org/1999/xlink" width="400" height="71.3312693498452" viewBox="0, 0, 400,71.3312693498452"><g id="svgg"><path id="path0" d="M18.824 0.991 L 18.824 1.981 16.471 1.981 L 14.118 1.981 14.118 3.529 L 14.118 5.077 11.765 5.077 L 9.412 5.077 9.412 16.951 L 9.412 28.825 4.706 28.916 L -0.000 29.008 -0.000 31.408 L 0.000 33.808 2.353 33.808 L 4.706 33.808 4.706 36.161 L 4.706 38.514 7.059 38.514 L 9.412 38.514 9.412 50.402 L 9.412 62.291 16.471 62.291 L 23.529 62.291 23.544 58.297 C 23.552 56.101,23.551 50.751,23.542 46.409 L 23.526 38.514 32.939 38.514 L 42.353 38.514 42.353 50.402 L 42.353 62.291 44.706 62.291 L 47.059 62.291 47.059 59.938 L 47.059 57.585 49.412 57.585 L 51.765 57.585 51.765 55.975 L 51.765 54.365 54.118 54.365 L 56.471 54.365 56.479 50.402 C 56.483 48.223,56.487 37.133,56.487 25.759 C 56.487 14.384,56.483 3.935,56.479 2.539 L 56.471 0.000 37.647 0.000 L 18.824 0.000 18.824 0.991 M61.176 27.183 L 61.176 54.365 63.529 54.365 L 65.882 54.365 65.882 55.975 L 65.882 57.585 68.235 57.585 L 70.588 57.585 70.588 59.938 L 70.588 62.291 72.941 62.291 L 75.294 62.291 75.303 58.297 C 75.308 56.101,75.313 44.342,75.315 32.167 L 75.318 10.031 82.365 10.031 L 89.412 10.031 89.412 36.161 L 89.412 62.291 91.765 62.291 L 94.118 62.291 94.118 59.938 L 94.118 57.585 96.471 57.585 L 98.824 57.585 98.824 55.975 L 98.824 54.365 101.176 54.365 L 103.529 54.365 103.538 50.402 C 103.542 48.223,103.546 38.916,103.546 29.721 C 103.546 20.526,103.542 12.307,103.538 11.455 L 103.529 9.907 101.176 9.907 L 98.824 9.907 98.824 7.492 L 98.824 5.077 96.471 5.077 L 94.118 5.077 94.118 3.529 L 94.118 1.981 84.706 1.981 L 75.294 1.981 75.294 0.991 L 75.294 0.000 68.235 0.000 L 61.176 0.000 61.176 27.183 M127.059 0.991 L 127.059 1.981 124.706 1.981 L 122.353 1.981 122.353 3.529 L 122.353 5.077 120.000 5.077 L 117.647 5.077 117.647 16.951 L 117.647 28.825 112.941 28.916 L 108.235 29.008 108.235 31.408 L 108.235 33.808 110.588 33.808 L 112.941 33.808 112.941 36.161 L 112.941 38.514 115.294 38.514 L 117.647 38.514 117.647 50.402 L 117.647 62.291 124.706 62.291 L 131.765 62.291 131.779 58.297 C 131.787 56.101,131.787 50.751,131.778 46.409 L 131.761 38.514 141.175 38.514 L 150.588 38.514 150.588 50.402 L 150.588 62.291 152.941 62.291 L 155.294 62.291 155.294 59.938 L 155.294 57.585 157.647 57.585 L 160.000 57.585 160.000 55.975 L 160.000 54.365 162.353 54.365 L 164.706 54.365 164.714 50.402 C 164.718 48.223,164.722 37.133,164.722 25.759 C 164.722 14.384,164.718 3.935,164.714 2.539 L 164.706 0.000 145.882 0.000 L 127.059 0.000 127.059 0.991 M188.235 0.991 L 188.235 1.981 185.882 1.981 L 183.529 1.981 183.529 3.529 L 183.529 5.077 181.176 5.077 L 178.824 5.077 178.824 15.418 L 178.824 25.759 176.471 25.759 L 174.118 25.759 174.118 27.368 L 174.118 28.978 171.765 28.978 L 169.412 28.978 169.412 31.393 L 169.412 33.808 174.118 33.808 L 178.824 33.808 178.824 35.279 L 178.824 36.750 174.118 36.842 L 169.412 36.934 169.412 39.334 L 169.412 41.734 171.765 41.734 L 174.118 41.734 174.118 44.087 L 174.118 46.440 176.471 46.440 L 178.824 46.440 178.824 58.328 L 178.824 70.217 185.882 70.217 L 192.941 70.217 192.956 66.223 C 192.964 64.026,192.963 58.676,192.954 54.334 L 192.938 46.440 202.351 46.440 L 211.765 46.440 211.765 58.328 L 211.765 70.217 218.824 70.217 L 225.882 70.217 225.892 66.254 C 225.897 64.074,225.901 58.334,225.901 53.498 C 225.901 48.663,225.897 42.923,225.892 40.743 L 225.882 36.780 209.412 36.780 L 192.941 36.780 192.941 35.294 L 192.941 33.808 204.706 33.808 L 216.471 33.808 216.471 32.198 L 216.471 30.588 218.824 30.588 L 221.176 30.588 221.176 28.235 L 221.176 25.882 223.529 25.882 L 225.882 25.882 225.891 24.303 C 225.903 22.116,225.904 5.708,225.892 2.570 L 225.882 0.000 207.059 0.000 L 188.235 0.000 188.235 0.991 M240.000 0.991 L 240.000 1.981 237.647 1.981 L 235.294 1.981 235.294 3.529 L 235.294 5.077 232.941 5.077 L 230.588 5.077 230.588 33.684 L 230.588 62.291 249.412 62.291 L 268.235 62.291 268.235 59.938 L 268.235 57.585 270.588 57.585 L 272.941 57.585 272.941 55.975 L 272.941 54.365 275.294 54.365 L 277.647 54.365 277.647 49.536 L 277.647 44.706 275.294 44.706 L 272.941 44.706 272.941 43.158 L 272.941 41.610 270.588 41.610 L 268.235 41.610 268.235 39.195 L 268.235 36.780 265.882 36.780 L 263.529 36.780 263.529 44.706 L 263.529 52.632 254.130 52.632 L 244.730 52.632 244.730 29.721 L 244.730 6.811 254.130 6.811 L 263.529 6.811 263.529 14.737 L 263.529 22.663 265.882 22.663 L 268.235 22.663 268.235 20.310 L 268.235 17.957 270.588 17.957 L 272.941 17.957 272.941 16.347 L 272.941 14.737 275.281 14.737 L 277.622 14.737 277.665 10.248 C 277.689 7.779,277.690 4.463,277.666 2.879 L 277.624 0.000 258.812 0.000 L 240.000 0.000 240.000 0.991 M301.176 0.991 L 301.176 1.981 298.824 1.981 L 296.471 1.981 296.471 3.529 L 296.471 5.077 294.118 5.077 L 291.765 5.077 291.765 15.418 L 291.765 25.759 289.412 25.759 L 287.059 25.759 287.059 27.368 L 287.059 28.978 284.706 28.978 L 282.353 28.978 282.353 31.393 L 282.353 33.808 287.059 33.808 L 291.765 33.808 291.765 48.050 L 291.765 62.291 298.824 62.291 L 305.882 62.291 305.894 58.297 C 305.900 56.101,305.904 49.692,305.903 44.056 L 305.901 33.808 315.304 33.808 L 324.706 33.808 324.706 48.050 L 324.706 62.291 327.059 62.291 L 329.412 62.291 329.412 59.938 L 329.412 57.585 331.765 57.585 L 334.118 57.585 334.118 55.975 L 334.118 54.365 336.471 54.365 L 338.824 54.365 338.838 50.372 C 338.846 48.175,338.848 43.550,338.844 40.093 L 338.835 33.808 341.182 33.808 L 343.529 33.808 343.529 32.198 L 343.529 30.588 345.882 30.588 L 348.235 30.588 348.235 28.173 L 348.235 25.759 343.535 25.759 L 338.834 25.759 338.843 19.412 C 338.848 15.921,338.846 11.268,338.838 9.071 L 338.824 5.077 336.471 5.077 L 334.118 5.077 334.118 3.529 L 334.118 1.981 331.765 1.981 L 329.412 1.981 329.412 0.991 L 329.412 0.000 327.059 0.000 L 324.706 0.000 324.706 12.879 L 324.706 25.759 315.303 25.759 L 305.901 25.759 305.903 15.449 C 305.904 9.779,305.900 3.983,305.894 2.570 L 305.882 0.000 303.529 0.000 L 301.176 0.000 301.176 0.991 M357.647 0.991 L 357.647 1.981 355.294 1.981 L 352.941 1.981 352.941 13.932 L 352.941 25.882 367.059 25.882 L 381.176 25.882 381.176 39.257 L 381.176 52.632 374.116 52.632 L 367.055 52.632 367.072 44.737 C 367.081 40.395,367.081 35.045,367.073 32.848 L 367.059 28.854 362.353 28.854 L 357.647 28.854 357.647 31.269 L 357.647 33.684 355.294 33.684 L 352.941 33.684 352.941 44.025 L 352.941 54.365 355.294 54.365 L 357.647 54.365 357.647 55.975 L 357.647 57.585 360.000 57.585 L 362.353 57.585 362.353 59.938 L 362.353 62.291 374.118 62.291 L 385.882 62.291 385.882 59.938 L 385.882 57.585 388.235 57.585 L 390.588 57.585 390.588 55.975 L 390.588 54.365 392.941 54.365 L 395.294 54.365 395.302 50.402 C 395.307 48.223,395.311 38.916,395.311 29.721 C 395.311 20.526,395.307 12.307,395.302 11.455 L 395.294 9.907 392.941 9.907 L 390.588 9.907 390.588 7.492 L 390.588 5.077 388.235 5.077 L 385.882 5.077 385.882 3.529 L 385.882 1.981 383.529 1.981 L 381.176 1.981 381.176 9.907 L 381.176 17.833 374.123 17.833 L 367.070 17.833 367.079 11.486 C 367.083 7.995,367.081 3.983,367.073 2.570 L 367.059 0.000 362.353 0.000 L 357.647 0.000 357.647 0.991 M42.353 17.833 L 42.353 28.854 32.951 28.854 L 23.550 28.854 23.550 17.833 L 23.550 6.811 32.951 6.811 L 42.353 6.811 42.353 17.833 M150.588 17.833 L 150.588 28.854 141.187 28.854 L 131.785 28.854 131.785 17.833 L 131.785 6.811 141.187 6.811 L 150.588 6.811 150.588 17.833 M211.765 16.285 L 211.765 25.759 202.370 25.759 L 192.976 25.759 192.965 16.285 L 192.953 6.811 202.359 6.811 L 211.765 6.811 211.765 16.285 " stroke="none" fill="#000000" fill-rule="evenodd"></path></g></svg>